<svg id="Background" xmlns="http://www.w3.org/2000/svg" viewBox="0 0 612.28 340.16"><path d="M589.61,294.8H566.93a22.68,22.68,0,0,1-22.68-22.67h0a22.68,22.68,0,0,1,22.68-22.68h22.68a22.68,22.68,0,0,1,22.68,22.68h0A22.68,22.68,0,0,1,589.61,294.8ZM79.37,136.06h0A22.67,22.67,0,0,0,56.7,113.39h0A22.67,22.67,0,0,0,34,136.06h0A22.67,22.67,0,0,0,56.7,158.74h0A22.67,22.67,0,0,0,79.37,136.06Zm0-75.37A7.34,7.34,0,1,0,86.71,68a7.35,7.35,0,0,0-7.34-7.34m0-4A11.34,11.34,0,0,1,90.71,68h0A11.34,11.34,0,0,1,68,68h0A11.34,11.34,0,0,1,79.37,56.69ZM294.81,34.93h0a11.34,11.34,0,0,0-11.34-11.34h0a11.34,11.34,0,0,0-11.34,11.34h0a11.34,11.34,0,0,0,11.34,11.34h0A11.34,11.34,0,0,0,294.81,34.93ZM498.9,249.45h0a22.68,22.68,0,0,1-22.68-22.68h0a22.69,22.69,0,0,1,22.68-22.68h90.71a22.68,22.68,0,0,0,22.68-22.67h0a22.68,22.68,0,0,0-22.68-22.68H487.56a22.68,22.68,0,1,0,0-45.35H425.2a22.69,22.69,0,0,0,22.68-22.68h0A22.68,22.68,0,0,0,425.2,68H175.75a22.68,22.68,0,0,0-22.68,22.68h0a22.69,22.69,0,0,0,22.68,22.68h-51a22.68,22.68,0,1,0,0,45.35h34a22.67,22.67,0,0,1,22.68,22.68h0a22.67,22.67,0,0,1-22.68,22.67H22.68A22.69,22.69,0,0,0,0,226.77H0a22.68,22.68,0,0,0,22.68,22.68h68a22.68,22.68,0,1,0,0,45.35H498.9a22.68,22.68,0,0,0,22.68-22.67h0A22.68,22.68,0,0,0,498.9,249.45Zm-470.55,72a7.34,7.34,0,1,0,7.34,7.34,7.34,7.34,0,0,0-7.34-7.34m0-4A11.34,11.34,0,1,1,17,328.82a11.34,11.34,0,0,1,11.34-11.34ZM515,26.68a13,13,0,1,0,13,13,13,13,0,0,0-13-13m0-4a17,17,0,0,1,17,17h0a17,17,0,0,1-34,0h0a17,17,0,0,1,17-17Z"/></svg>