<svg xmlns="http://www.w3.org/2000/svg" viewBox="0 0 612.28 340.16"><g id="Foreground_Image_" data-name="Foreground (Image)"><path d="M129.68,89.72a1.91,1.91,0,0,1-.89-.21,2,2,0,0,1-.9-2.68,150.23,150.23,0,0,1,67-67,2,2,0,1,1,1.79,3.58,146.18,146.18,0,0,0-65.21,65.2A2,2,0,0,1,129.68,89.72Zm51.59,8.67a2,2,0,0,1-1.63-3.16A100.06,100.06,0,0,1,203.3,71.58a2,2,0,0,1,2.31,3.26A96.2,96.2,0,0,0,182.9,97.55,2,2,0,0,1,181.27,98.39ZM155.1,94a1.91,1.91,0,0,1-1-.27,2,2,0,0,1-.73-2.73A125.13,125.13,0,0,1,199.06,45.3a2,2,0,0,1,2,3.47A121,121,0,0,0,156.83,93,2,2,0,0,1,155.1,94ZM355.32,279.61h0l-182.66-.44A50.87,50.87,0,1,1,191,180.86a74.61,74.61,0,0,1-5.36-28,75.29,75.29,0,0,1,149.38-13.39A63.11,63.11,0,0,1,435,205.73a38.65,38.65,0,1,1,16.86,73.44,2,2,0,0,1,0-4,34.65,34.65,0,1,0-19.21-63.49,2.06,2.06,0,0,1-2.75-.52,2,2,0,0,1-.25-1.83A59.08,59.08,0,0,0,335,144.82a2,2,0,0,1-3.31-1.24,71.29,71.29,0,0,0-142,9.32,70.71,70.71,0,0,0,7.1,31.06,2,2,0,0,1-.4,2.3,2,2,0,0,1-2.31.35,46.42,46.42,0,0,0-21.4-5.18,46.87,46.87,0,1,0,0,93.74l182.66.44a2,2,0,1,1,0,4Zm48.14,60.55a1.87,1.87,0,0,1-.4,0,2,2,0,0,1-1.6-2V294.8H378a2,2,0,0,1-1.75-3l25.51-45.35a2,2,0,0,1,3.75,1v28H429a2,2,0,0,1,1.67.89,2,2,0,0,1,.17,1.89L405.3,338.93A2,2,0,0,1,403.46,340.16ZM381.37,290.8h22.09a2,2,0,0,1,2,2v35.43l20.5-48.8h-22.5a2,2,0,0,1-2-2V255.09Z"/></g></svg>