<svg id="Background" xmlns="http://www.w3.org/2000/svg" viewBox="0 0 612.28 340.16"><path d="M36,181.42a2,2,0,0,1-2,2H24.68v9.34a2,2,0,0,1-4,0v-9.34H11.34a2,2,0,0,1,0-4h9.34v-9.34a2,2,0,0,1,4,0v9.34H34A2,2,0,0,1,36,181.42Zm511.06,45.36,2.6-2.6a2,2,0,1,0-2.83-2.83l-2.6,2.6-2.59-2.6a2,2,0,1,0-2.83,2.83l2.6,2.6-2.6,2.59a2,2,0,1,0,2.83,2.83l2.59-2.59,2.6,2.59a2,2,0,0,0,1.41.59,2,2,0,0,0,1.42-3.42Zm-477-213.6a2,2,0,0,0-2-2H56.74a2,2,0,0,0,0,4H68.08A2,2,0,0,0,70.08,13.18Zm4.25,11.34a2,2,0,0,0-2-2H45.79a2,2,0,0,0,0,4H72.33A2,2,0,0,0,74.33,24.52ZM589.61,94.71a7.34,7.34,0,1,0,7.34,7.34,7.35,7.35,0,0,0-7.34-7.34m0-4A11.34,11.34,0,0,1,601,102.05h0a11.34,11.34,0,1,1-22.68,0h0a11.34,11.34,0,0,1,11.34-11.34Zm-167.33-85h0A5.67,5.67,0,0,0,416.61,0h0a5.67,5.67,0,0,0-5.67,5.67h0a5.66,5.66,0,0,0,5.67,5.66h0A5.66,5.66,0,0,0,422.28,5.68ZM79.42,11.18a2,2,0,1,0,2,2A2,2,0,0,0,79.42,11.18ZM309.05,332.67l130-36.66a4,4,0,1,0-2.17-7.7L308.06,324.64l-121.2-40.25-4.94-89.15a4,4,0,1,0-8,.44L179,287.55a4,4,0,0,0,2.74,3.58L306.7,332.62a3.92,3.92,0,0,0,1.26.21A3.69,3.69,0,0,0,309.05,332.67Z"/></svg>