<svg id="Background" xmlns="http://www.w3.org/2000/svg" viewBox="0 0 612.28 340.16"><path d="M502.61,169.32l-57.94-41.44,57.94-41.63a2,2,0,0,0-.56-3.53L371.16,41.25a2,2,0,0,0-1.71.24L308,82.25,242.79,41.46a2,2,0,0,0-1.67-.21L110.23,83.62a2,2,0,0,0-.49,3.57l61.55,40.7-61.55,41a2,2,0,0,0-.87,1.95,2,2,0,0,0,1.37,1.62l62.66,20v102a2,2,0,0,0,1.37,1.9l133.17,44a2,2,0,0,0,.63.1,1.93,1.93,0,0,0,.63-.1l133.17-44a2,2,0,0,0,1.37-1.9V192.4l58.83-19.56a2,2,0,0,0,.54-3.52ZM115.42,86.14l126-40.79,61.92,38.7L175.2,125.69Zm0,83.82,59.8-39.87,128.43,41.19-57.42,40.51ZM306.07,335.85,176.9,293.13V193.82l69,22.08a1.81,1.81,0,0,0,.61.1,2,2,0,0,0,1.15-.37l58.36-41.17Zm0-168-124.66-40,124.66-40.5ZM370.86,45.35,497,85.33,440.9,125.67,312.63,84Zm-60.79,42,124.66,40.5-124.66,40ZM439.24,293.13,310.07,335.85V174.38l60.74,41.27a2,2,0,0,0,1.12.35,2.24,2.24,0,0,0,.63-.1l66.68-22.17Zm-67-81.34-59.65-40.54L440.9,130.1l56.18,40.19Z"/></svg>