<svg id="Background" xmlns="http://www.w3.org/2000/svg" viewBox="0 0 612.28 340.16"><path d="M36,181.42a2,2,0,0,1-2,2H24.68v9.34a2,2,0,0,1-4,0v-9.34H11.34a2,2,0,0,1,0-4h9.34v-9.34a2,2,0,0,1,4,0v9.34H34A2,2,0,0,1,36,181.42Zm511.06,45.35,2.6-2.59a2,2,0,1,0-2.83-2.83l-2.6,2.6-2.59-2.6a2,2,0,1,0-2.83,2.83l2.6,2.59-2.6,2.6a2,2,0,0,0,1.42,3.41,2,2,0,0,0,1.41-.58l2.59-2.6,2.6,2.6a2,2,0,0,0,1.41.58,2,2,0,0,0,1.42-3.41ZM70.08,13.18a2,2,0,0,0-2-2H56.74a2,2,0,0,0,0,4H68.08A2,2,0,0,0,70.08,13.18Zm4.25,11.33a2,2,0,0,0-2-2H45.79a2,2,0,0,0,0,4H72.33A2,2,0,0,0,74.33,24.51Zm515.28,70.2a7.34,7.34,0,1,0,7.34,7.34,7.34,7.34,0,0,0-7.34-7.34m0-4A11.34,11.34,0,0,1,601,102.05h0a11.34,11.34,0,1,1-22.68,0h0a11.34,11.34,0,0,1,11.34-11.34Zm-167.33-85h0A5.67,5.67,0,0,0,416.61,0h0a5.67,5.67,0,0,0-5.67,5.67h0a5.67,5.67,0,0,0,5.67,5.67h0A5.67,5.67,0,0,0,422.28,5.67ZM79.42,11.18a2,2,0,1,0,2,2A2,2,0,0,0,79.42,11.18ZM382.77,320.79a4,4,0,0,0-3.84-7c-22.74,12.44-50.84,14-72.79,14a143.09,143.09,0,0,1-103.42-43.42c-27.11-27.85-42-65.12-42-105a156.16,156.16,0,0,1,42.09-107.2C230.28,42.85,267,26.68,306.14,26.68a4,4,0,0,0,0-8c-41.39,0-80.17,17.07-109.21,48.07a164.15,164.15,0,0,0-44.25,112.67c0,41.93,15.74,81.19,44.31,110.54A151,151,0,0,0,306.14,335.8C329,335.8,358.44,334.1,382.77,320.79Z"/></svg>