<svg id="Background" xmlns="http://www.w3.org/2000/svg" viewBox="0 0 612.28 340.16"><path d="M34,179.42H24.68v-9.34a2,2,0,0,0-4,0v9.34H11.34a2,2,0,0,0,0,4h9.34v9.34a2,2,0,0,0,4,0v-9.34H34a2,2,0,1,0,0-4Z"/><path d="M547.08,226.78l2.6-2.6a2,2,0,1,0-2.83-2.83l-2.6,2.6-2.59-2.6a2,2,0,1,0-2.83,2.83l2.6,2.6-2.6,2.59a2,2,0,0,0,1.42,3.41,2,2,0,0,0,1.41-.58l2.59-2.6,2.6,2.6a2,2,0,0,0,1.41.58,2,2,0,0,0,1.42-3.41Z"/><path d="M68.08,15.18H56.74a2,2,0,0,1,0-4H68.08a2,2,0,0,1,0,4Z"/><path d="M72.33,26.52H45.79a2,2,0,0,1,0-4H72.33a2,2,0,0,1,0,4Z"/><path d="M589.61,94.71a7.34,7.34,0,1,1-7.34,7.34,7.36,7.36,0,0,1,7.34-7.34m0-4a11.34,11.34,0,0,0-11.34,11.34h0a11.34,11.34,0,1,0,22.68,0h0a11.34,11.34,0,0,0-11.34-11.34Z"/><rect x="410.94" width="11.34" height="11.34" rx="5.67"/><circle cx="79.42" cy="13.18" r="2"/><path d="M275.89,258.78c-31.87,0-64.45-12.95-90.11-38.62-49.31-49.3-51.7-124.15-5.45-170.4A4,4,0,0,1,186,55.42c-43.07,43.07-40.68,113,5.45,159.08S307.44,263,350.52,220a4,4,0,1,1,5.66,5.65A112.61,112.61,0,0,1,275.89,258.78Z"/></svg>